<?xml version="1.0" encoding="UTF-8"?>
<svg width="38px" height="33px" viewBox="0 0 38 33" version="1.1" xmlns="http://www.w3.org/2000/svg" xmlns:xlink="http://www.w3.org/1999/xlink">
    <!-- Generator: Sketch 50.2 (55047) - http://www.bohemiancoding.com/sketch -->
    <title>icon_telegram</title>
    <desc>Created with Sketch.</desc>
    <defs></defs>
    <g id="Page-1" stroke="none" stroke-width="1" fill="none" fill-rule="evenodd">
        <g id="Landing_1280" transform="translate(-860.000000, -5292.000000)" fill="#000000" fill-rule="nonzero">
            <g id="Contacts" transform="translate(199.000000, 5118.000000)">
                <g id="telegram" transform="translate(640.000000, 149.000000)">
                    <path d="M36.2652817,49.7477636 L38.672064,47.4160702 C39.2327105,46.8728279 40.1007702,46.8283232 40.7124727,47.3114239 L50.1954234,54.7994851 C50.220736,54.8164341 50.2437866,54.8237604 50.2703917,54.8237604 C50.283425,54.8237604 50.398678,54.8204799 50.4235597,54.7004155 L55.8686707,28.2720287 C55.8748103,28.242286 55.8725484,28.230367 55.8575762,28.2116685 C55.8413116,28.1913297 55.8157836,28.1759116 55.7985495,28.1759116 C55.7906864,28.1759116 55.7791611,28.1787546 55.7660201,28.1840033 L24.9676227,40.3681359 L31.1259019,42.2141536 C31.6487412,42.3708497 32.0535269,42.7928248 32.1943079,43.3275379 L34.020254,50.2687463 L34.020254,44.3974203 C33.9317842,43.9024656 34.1383186,43.4005142 34.538584,43.1379151 L51.4209901,32.0656445 C51.8127549,31.8046253 52.2140697,32.3843294 51.8685863,32.7130579 L37.5121342,45.5410298 C37.2953611,45.734752 36.8797436,47.1369966 36.2652817,49.7477636 Z M50.2703917,58 L50.270284,58 C49.5719802,58 48.9025435,57.7762734 48.3347879,57.3532049 C48.3230472,57.344457 48.3115219,57.3355998 48.3001043,57.3265239 L39.8565846,50.6591216 L36.364527,54.0423575 C35.8060347,54.6096564 35.0669077,54.9215178 34.2796328,54.9215178 C32.9801824,54.9215178 31.8452098,54.0777864 31.4555039,52.821812 C31.4486103,52.7993956 31.4420398,52.7769792 31.4361156,52.7543441 L29.3983998,45.0080023 L22.9552195,43.0766929 C21.8193852,42.736401 21.0526836,41.7401288 21.002597,40.5388286 C20.9524027,39.3373096 21.6333647,38.2787089 22.737316,37.8419718 L54.6300781,25.2248201 C55.0072893,25.0755597 55.4003343,25 55.7986572,25 C56.7643048,25 57.670818,25.4406736 58.2857519,26.2089546 C58.8944385,26.9694719 59.1296838,27.9585272 58.9310609,28.922323 L53.4857345,55.3507098 C53.1695966,56.885741 51.8173668,58 50.2703917,58 Z" id="icon_telegram"></path>
                </g>
            </g>
        </g>
    </g>
</svg>