<?xml version="1.0" encoding="UTF-8"?>
<svg width="37px" height="35px" viewBox="0 0 37 35" version="1.1" xmlns="http://www.w3.org/2000/svg" xmlns:xlink="http://www.w3.org/1999/xlink">
    <!-- Generator: Sketch 50.2 (55047) - http://www.bohemiancoding.com/sketch -->
    <title>icon_phone</title>
    <desc>Created with Sketch.</desc>
    <defs></defs>
    <g id="Page-1" stroke="none" stroke-width="1" fill="none" fill-rule="evenodd">
        <g id="Landing_1280" transform="translate(-541.000000, -5288.000000)" fill="#000000" fill-rule="nonzero">
            <g id="Contacts" transform="translate(199.000000, 5118.000000)">
                <g id="phone" transform="translate(320.000000, 149.000000)">
                    <path d="M56.4996094,25.2648097 C55.278418,23.4666833 53.5927734,21.4051372 51.3826172,21.4051372 C50.7379883,21.4051372 49.769043,21.5922034 48.828125,22.4893577 C47.9472656,23.3254292 46.6980469,24.6158044 45.7491211,26.0130746 C44.5599609,27.7615711 44.1795898,29.2046534 44.5839844,30.4224927 C44.8442383,31.2203874 45.6490234,32.0259175 47.0543945,33.3773755 L47.0704102,33.3926463 C47.6629883,33.965298 48.3356445,34.6143032 48.5918945,34.9578943 C48.8321289,35.2823969 48.5318359,36.1604628 47.8071289,37.2523188 C46.862207,38.6801304 45.284668,40.3293673 43.8672852,41.7533612 C42.6581055,42.8490348 41.2407227,44.0935978 39.9114258,45.0136582 C38.2458008,46.1627793 37.3969727,46.3345749 37.0366211,46.3345749 C36.8564453,46.3345749 36.7763672,46.284945 36.7363281,46.2582213 C36.3839844,46.0177076 35.7353516,45.4106968 35.0787109,44.7922329 C33.6132812,43.4178688 32.8125,42.6848746 31.9796875,42.4405432 C31.6513672,42.3451013 31.3110352,42.2954715 30.9586914,42.2954715 C29.8135742,42.2954715 28.5083008,42.7879519 26.9667969,43.8034543 C25.6615234,44.6624319 24.4523437,45.7351994 23.671582,46.4834643 C22.5985352,47.506602 22.4704102,48.5564635 22.5464844,49.2589162 C22.7626953,51.2212028 24.8126953,52.7177326 26.5704102,53.8057708 C28.6324219,55.0808753 31.0027344,55.7260629 33.6132812,55.7260629 C39.0265625,55.7260629 45.1165039,52.8742574 50.3255859,47.9074582 C52.1393555,46.1780501 53.7008789,44.3264762 54.9741211,42.4061841 C56.2553711,40.4668037 57.2042969,38.4968818 57.796875,36.5575014 C59.0861328,32.316061 58.6376953,28.4143941 56.4996094,25.2648097 Z M55.0662109,35.7977834 C54.549707,37.4928325 53.7088867,39.229876 52.5677734,40.9554665 C51.4146484,42.703963 49.98125,44.3990121 48.315625,45.9871662 C47.1344727,47.1133812 45.8852539,48.1365189 44.6080078,49.0298556 C43.3587891,49.9002862 42.0775391,50.6447334 40.8042969,51.2402912 C39.559082,51.8243959 38.3058594,52.2710642 37.0806641,52.5726608 C35.8834961,52.866622 34.7183594,53.0155114 33.6092773,53.0155114 C31.5552734,53.0155114 29.7054687,52.5153956 28.1119141,51.5304347 C27.4592773,51.1257608 26.6344727,50.5874682 26.0499023,50.0071811 C25.4973633,49.4650709 25.3852539,49.1252975 25.3692383,48.9764081 C25.3612305,48.9000545 25.3412109,48.716806 25.6735352,48.4037564 C26.6825195,47.4417015 27.6875,46.6209007 28.5803711,46.036796 C29.9376953,45.1434593 30.6503906,45.0098406 30.9546875,45.0098406 C31.0227539,45.0098406 31.0708008,45.0174759 31.1068359,45.0251113 C31.1548828,45.051835 31.3030273,45.1396416 31.5873047,45.37252 C31.9676758,45.6855696 32.4241211,46.1093318 33.0767578,46.7201603 C34.0016602,47.5944086 34.5942383,48.1327012 35.074707,48.4648392 L35.1307617,48.503016 C35.6913086,48.8656954 36.3359375,49.0527616 37.040625,49.0527616 C37.6892578,49.0527616 38.3699219,48.9038722 39.1226562,48.5984579 C39.8713867,48.2930437 40.6761719,47.83874 41.5810547,47.2164585 C43.0384766,46.2085915 44.5479492,44.8838572 45.8291992,43.7232831 L45.8692383,43.688924 L45.925293,43.6316588 C47.5108398,42.039687 49.128418,40.3408203 50.2134766,38.7106718 C50.6418945,38.0693019 50.9702148,37.4584734 51.1904297,36.8896394 C51.3786133,36.4009766 51.4867187,35.9466729 51.5147461,35.5000045 C51.5788086,34.5150436 51.2264648,33.8125908 50.9181641,33.3926463 C50.5658203,32.9192542 49.9972656,32.3580555 49.168457,31.5601608 L49.0803711,31.4723542 C48.44375,30.8615257 47.9833008,30.4110397 47.6629883,30.0559956 C47.4227539,29.7887582 47.3266602,29.6475041 47.2946289,29.5902389 C47.2145508,29.2886424 47.3987305,28.5861896 48.143457,27.490516 C48.9442383,26.3108535 50.0533203,25.1655501 50.8380859,24.4134675 L50.8420898,24.4096498 C51.0462891,24.2149482 51.2384766,24.1156886 51.3946289,24.1156886 C51.646875,24.1156886 52.0272461,24.3218432 52.4356445,24.6845226 C53.0722656,25.2457213 53.6768555,26.0741574 54.1292969,26.7346157 C54.9500977,27.9448197 55.4545898,29.3115484 55.6227539,30.8042605 C55.7869141,32.3580555 55.6027344,34.0378338 55.0662109,35.7977834 Z" id="icon_phone"></path>
                </g>
            </g>
        </g>
    </g>
</svg>