<?xml version="1.0" encoding="UTF-8"?>
<svg width="39px" height="32px" viewBox="0 0 39 32" version="1.1" xmlns="http://www.w3.org/2000/svg" xmlns:xlink="http://www.w3.org/1999/xlink">
    <!-- Generator: Sketch 50.2 (55047) - http://www.bohemiancoding.com/sketch -->
    <title>icon_email</title>
    <desc>Created with Sketch.</desc>
    <defs></defs>
    <g id="Page-1" stroke="none" stroke-width="1" fill="none" fill-rule="evenodd">
        <g id="Landing_1280" transform="translate(-221.000000, -5292.000000)" fill="#000000" fill-rule="nonzero">
            <g id="Contacts" transform="translate(199.000000, 5118.000000)">
                <g id="email" transform="translate(0.000000, 149.000000)">
                    <path d="M57.3783446,25.0566368 L25.695356,25.0566368 C24.0209662,25.0566368 22.6663091,26.3528187 22.6663091,27.9549317 L22.6663091,53.1499698 C22.6663091,54.7520828 24.0209662,56.0482646 25.695356,56.0482646 L57.3783446,56.0482646 C59.0527344,56.0482646 60.4073914,54.7520828 60.4073914,53.1499698 L60.4073914,27.9549317 C60.4073914,26.3568441 59.0485274,25.0566368 57.3783446,25.0566368 Z M54.1305333,27.9549317 L42.8515408,36.9758744 L42.7842286,37.0282047 L42.7253305,37.0885859 C42.4392538,37.3784153 42.052209,37.5354063 41.635715,37.5394317 C41.631508,37.5394317 41.631508,37.5394317 41.627301,37.5394317 C41.2150141,37.5394317 40.8279692,37.3824408 40.5418925,37.1006621 L40.4829944,37.0443064 L28.9642024,27.9549317 L54.1305333,27.9549317 Z M57.3783446,53.1499698 L25.695356,53.1499698 C25.695356,53.1499698 25.695356,53.1499698 25.695356,53.1499698 L25.695356,29.1343767 L38.4341808,39.1777734 C39.2924107,39.9909061 40.4198893,40.4377266 41.631508,40.4377266 C41.639922,40.4377266 41.644129,40.4377266 41.652543,40.4377266 C42.8683688,40.4337012 44.0042614,39.9788299 44.8582843,39.1536209 L57.3825516,29.1384021 L57.3825516,53.1499698 C57.3783446,53.1499698 57.3783446,53.1499698 57.3783446,53.1499698 Z" id="icon_email"></path>
                </g>
            </g>
        </g>
    </g>
</svg>