<?xml version="1.0" encoding="UTF-8"?>
<svg width="26px" height="26px" viewBox="0 0 26 26" version="1.1" xmlns="http://www.w3.org/2000/svg" xmlns:xlink="http://www.w3.org/1999/xlink">
    <!-- Generator: Sketch 50.2 (55047) - http://www.bohemiancoding.com/sketch -->
    <title>Shape</title>
    <desc>Created with Sketch.</desc>
    <defs></defs>
    <g id="Page-1" stroke="none" stroke-width="1" fill="none" fill-rule="evenodd">
        <g id="Landing_1280_navigation&amp;form" transform="translate(-883.000000, -2154.000000)" fill="#000000" fill-rule="nonzero">
            <g id="Request-Demo_loading" transform="translate(0.000000, 1655.000000)">
                <g id="form" transform="translate(769.000000, 140.000000)">
                    <g id="loading" transform="translate(114.000000, 359.000000)">
                        <path d="M13,25.5 C11.3122393,25.5 9.67344657,25.1696578 8.13413551,24.518317 C6.64790062,23.8897127 5.31133803,22.9871948 4.16207161,21.8379284 C3.01280519,20.688662 2.1102873,19.3520994 1.48171395,17.8659376 C0.830342221,16.3265534 0.5,14.6877607 0.5,13 C0.5,12.2574514 1.10120138,11.65625 1.84375,11.65625 C2.58629862,11.65625 3.1875,12.2574514 3.1875,13 C3.1875,14.3268759 3.44656208,15.6104108 3.95882406,16.8197945 C4.4547708,17.9904075 5.16204962,19.0400991 6.06214714,19.9401966 C6.96488269,20.8429322 8.0151544,21.5511635 9.1820982,22.0433289 C10.3903694,22.5538346 11.6741578,22.8125 13,22.8125 C14.3268759,22.8125 15.6104108,22.5534379 16.8197945,22.0411759 C17.9904075,21.5452292 19.0400991,20.8379504 19.9401966,19.9378529 C20.8429322,19.0351173 21.5511635,17.9848456 22.0433289,16.8179018 C22.5538346,15.6096306 22.8125,14.3258422 22.8125,13 C22.8125,11.6731241 22.5534379,10.3895892 22.0411759,9.18020552 C21.5462063,8.01189873 20.8396354,6.96381862 19.9378529,6.05980339 C19.0351173,5.15706784 17.9848456,4.44883649 16.8179018,3.95667115 C15.6096306,3.4461654 14.3258422,3.1875 13,3.1875 C12.2574514,3.1875 11.65625,2.58629862 11.65625,1.84375 C11.65625,1.10120138 12.2574514,0.5 13,0.5 C14.6877607,0.5 16.3265534,0.830342221 17.8658645,1.48168304 C19.3520994,2.1102873 20.688662,3.01280519 21.8379284,4.16207161 C22.9836528,5.30779598 23.8853601,6.64559512 24.5159423,8.13406245 C25.167314,9.67344657 25.4976562,11.3122393 25.4976562,13 C25.4976562,14.6877607 25.167314,16.3265534 24.5162438,17.8652236 C23.8904292,19.3506199 22.9882188,20.687638 21.8379284,21.8379284 C20.692204,22.9836528 19.3544049,23.8853601 17.866556,24.5156801 C16.3282671,25.1690263 14.6893935,25.5 13,25.5 Z" id="Shape"></path>
                    </g>
                </g>
            </g>
        </g>
    </g>
</svg>