<?xml version="1.0" encoding="UTF-8"?>
<svg width="93px" height="47px" viewBox="0 0 93 47" version="1.1" xmlns="http://www.w3.org/2000/svg" xmlns:xlink="http://www.w3.org/1999/xlink">
    <!-- Generator: Sketch 50.2 (55047) - http://www.bohemiancoding.com/sketch -->
    <title>logo</title>
    <desc>Created with Sketch.</desc>
    <defs></defs>
    <g id="Page-1" stroke="none" stroke-width="1" fill="none" fill-rule="evenodd">
        <g id="Landing_1280" transform="translate(-92.000000, -30.000000)">
            <g id="Navigation" transform="translate(92.000000, 30.000000)">
                <g id="logo">
                    <path d="M5.43506494,5.42307692 L5.43506494,41.5769231 L87.5649351,41.5769231 L87.5649351,5.42307692 L5.43506494,5.42307692 Z M0,0 L93,0 L93,47 L0,47 L0,0 Z" id="Rectangle-Copy-2" fill="#FFDC19" fill-rule="nonzero"></path>
                    <path d="M19.8956843,29.1836745 L16.344,29.1836745 L16.344,18.0443009 L19.8956843,18.0443009 L19.8956843,19.4050111 C20.6336967,18.5055586 22.0405327,17.7444834 23.37818,17.7444834 L23.37818,21.1577904 C23.1706141,21.1116646 22.8707965,21.0655388 22.5017904,21.0655388 C21.579275,21.0655388 20.356942,21.4576079 19.8956843,22.0803058 L19.8956843,29.1836745 Z M37.0390958,29.1836745 L33.4874114,29.1836745 L33.4874114,28.076656 C32.7955249,28.9069199 31.4578775,29.4604291 30.0279786,29.4604291 C28.3213251,29.4604291 26.1995397,28.3072848 26.1995397,25.7934303 C26.1995397,23.0950727 28.3213251,22.2186831 30.0279786,22.2186831 C31.5040033,22.2186831 32.8185878,22.6799408 33.4874114,23.5102047 L33.4874114,22.1725573 C33.4874114,21.2039162 32.6571476,20.5581554 31.2272487,20.5581554 C30.1202302,20.5581554 28.9670859,20.9732873 28.0676334,21.7343625 L26.7991747,19.4972626 C28.2290736,18.2749297 30.1432931,17.7675462 31.8499466,17.7675462 C34.5252413,17.7675462 37.0390958,18.7592503 37.0390958,22.2186831 L37.0390958,29.1836745 Z M31.5040033,27.1310777 C32.2881414,27.1310777 33.1184053,26.8543231 33.4874114,26.3238767 L33.4874114,25.3321726 C33.1184053,24.8247891 32.2881414,24.5480345 31.5040033,24.5480345 C30.558425,24.5480345 29.7281611,24.9631665 29.7281611,25.8395561 C29.7281611,26.7159457 30.558425,27.1310777 31.5040033,27.1310777 Z M52.6372939,29.1836745 L49.0856095,29.1836745 L49.0856095,22.7491295 C49.0856095,21.3884192 48.3706601,20.9040986 47.2636416,20.9040986 C46.2027489,20.9040986 45.5108623,21.4806708 45.0957304,21.9880543 L45.0957304,29.1836745 L41.544046,29.1836745 L41.544046,18.0443009 L45.0957304,18.0443009 L45.0957304,19.4050111 C45.764554,18.620873 47.0791385,17.7675462 48.9472322,17.7675462 C51.4841496,17.7675462 52.6372939,19.2435709 52.6372939,21.2961677 L52.6372939,29.1836745 Z M61.3627522,29.4604291 C59.1025894,29.4604291 57.8802565,28.3303477 57.8802565,26.1854994 L57.8802565,21.1347275 L56.0352256,21.1347275 L56.0352256,18.0443009 L57.8802565,18.0443009 L57.8802565,15 L61.4088779,15 L61.4088779,18.0443009 L63.6690407,18.0443009 L63.6690407,21.1347275 L61.4088779,21.1347275 L61.4088779,25.1937953 C61.4088779,25.8395561 61.7778841,26.3238767 62.400582,26.3238767 C62.792651,26.3238767 63.1847201,26.1854994 63.3000345,26.0471221 L63.9919211,28.7224168 C63.5537263,29.1375487 62.6773366,29.4604291 61.3627522,29.4604291 Z M67.1361611,33.5194969 L67.6435446,30.3598816 C67.8972363,30.4982589 68.2431796,30.5674476 68.5199342,30.5674476 C69.3271352,30.5674476 69.8345187,30.4060074 70.0190218,29.9447497 L70.2727135,29.3451147 L65.8446395,18.0443009 L69.580827,18.0443009 L72.0946815,25.1015438 L74.6315988,18.0443009 L78.3908492,18.0443009 L73.3631402,30.7750136 C72.4636876,33.1274279 70.780097,33.6578742 68.6583115,33.704 C68.3354312,33.704 67.5051673,33.6348113 67.1361611,33.5194969 Z" id="ranty" fill="#000000"></path>
                </g>
            </g>
        </g>
    </g>
</svg>